<svg xmlns="http://www.w3.org/2000/svg" viewBox="0 0 512 512" width="512" height="512"><defs><linearGradient id="bg" x1="0" y1="0" x2="1" y2="1"><stop offset="0" stop-color="#16324a"/><stop offset="1" stop-color="#0b1a28"/></linearGradient></defs><rect x="16" y="16" width="480" height="480" rx="108" fill="url(#bg)"/><g shape-rendering="crispEdges"><rect x="121" y="84" width="15" height="15" fill="#fff3b0"/><rect x="106" y="99" width="15" height="15" fill="#fff3b0"/><rect x="121" y="99" width="15" height="15" fill="#fff3b0"/><rect x="136" y="99" width="15" height="15" fill="#fff3b0"/><rect x="286" y="99" width="15" height="15" fill="#e8a317"/><rect x="301" y="99" width="15" height="15" fill="#e8a317"/><rect x="316" y="99" width="15" height="15" fill="#e8a317"/><rect x="331" y="99" width="15" height="15" fill="#e8a317"/><rect x="346" y="99" width="15" height="15" fill="#e8a317"/><rect x="121" y="114" width="15" height="15" fill="#fff3b0"/><rect x="271" y="114" width="15" height="15" fill="#e8a317"/><rect x="286" y="114" width="15" height="15" fill="#ffd54f"/><rect x="301" y="114" width="15" height="15" fill="#ffd54f"/><rect x="316" y="114" width="15" height="15" fill="#ffd54f"/><rect x="331" y="114" width="15" height="15" fill="#ffd54f"/><rect x="346" y="114" width="15" height="15" fill="#ffd54f"/><rect x="361" y="114" width="15" height="15" fill="#e8a317"/><rect x="256" y="129" width="15" height="15" fill="#e8a317"/><rect x="271" y="129" width="15" height="15" fill="#ffd54f"/><rect x="286" y="129" width="15" height="15" fill="#ffd54f"/><rect x="301" y="129" width="15" height="15" fill="#ffd54f"/><rect x="316" y="129" width="15" height="15" fill="#6b3d00"/><rect x="331" y="129" width="15" height="15" fill="#ffd54f"/><rect x="346" y="129" width="15" height="15" fill="#ffd54f"/><rect x="361" y="129" width="15" height="15" fill="#ffd54f"/><rect x="376" y="129" width="15" height="15" fill="#e8a317"/><rect x="241" y="144" width="15" height="15" fill="#e8a317"/><rect x="256" y="144" width="15" height="15" fill="#ffd54f"/><rect x="271" y="144" width="15" height="15" fill="#ffd54f"/><rect x="286" y="144" width="15" height="15" fill="#6b3d00"/><rect x="301" y="144" width="15" height="15" fill="#6b3d00"/><rect x="316" y="144" width="15" height="15" fill="#6b3d00"/><rect x="331" y="144" width="15" height="15" fill="#6b3d00"/><rect x="346" y="144" width="15" height="15" fill="#ffd54f"/><rect x="361" y="144" width="15" height="15" fill="#ffd54f"/><rect x="376" y="144" width="15" height="15" fill="#ffd54f"/><rect x="391" y="144" width="15" height="15" fill="#e8a317"/><rect x="241" y="159" width="15" height="15" fill="#e8a317"/><rect x="256" y="159" width="15" height="15" fill="#ffd54f"/><rect x="271" y="159" width="15" height="15" fill="#ffd54f"/><rect x="286" y="159" width="15" height="15" fill="#6b3d00"/><rect x="301" y="159" width="15" height="15" fill="#ffd54f"/><rect x="316" y="159" width="15" height="15" fill="#ffd54f"/><rect x="331" y="159" width="15" height="15" fill="#ffd54f"/><rect x="346" y="159" width="15" height="15" fill="#ffd54f"/><rect x="361" y="159" width="15" height="15" fill="#ffd54f"/><rect x="376" y="159" width="15" height="15" fill="#ffd54f"/><rect x="391" y="159" width="15" height="15" fill="#e8a317"/><rect x="241" y="174" width="15" height="15" fill="#e8a317"/><rect x="256" y="174" width="15" height="15" fill="#ffd54f"/><rect x="271" y="174" width="15" height="15" fill="#ffd54f"/><rect x="286" y="174" width="15" height="15" fill="#ffd54f"/><rect x="301" y="174" width="15" height="15" fill="#6b3d00"/><rect x="316" y="174" width="15" height="15" fill="#6b3d00"/><rect x="331" y="174" width="15" height="15" fill="#6b3d00"/><rect x="346" y="174" width="15" height="15" fill="#ffd54f"/><rect x="361" y="174" width="15" height="15" fill="#ffd54f"/><rect x="376" y="174" width="15" height="15" fill="#ffd54f"/><rect x="391" y="174" width="15" height="15" fill="#e8a317"/><rect x="241" y="189" width="15" height="15" fill="#e8a317"/><rect x="256" y="189" width="15" height="15" fill="#ffd54f"/><rect x="271" y="189" width="15" height="15" fill="#ffd54f"/><rect x="286" y="189" width="15" height="15" fill="#ffd54f"/><rect x="301" y="189" width="15" height="15" fill="#ffd54f"/><rect x="316" y="189" width="15" height="15" fill="#ffd54f"/><rect x="331" y="189" width="15" height="15" fill="#ffd54f"/><rect x="346" y="189" width="15" height="15" fill="#6b3d00"/><rect x="361" y="189" width="15" height="15" fill="#ffd54f"/><rect x="376" y="189" width="15" height="15" fill="#ffd54f"/><rect x="391" y="189" width="15" height="15" fill="#e8a317"/><rect x="241" y="204" width="15" height="15" fill="#e8a317"/><rect x="256" y="204" width="15" height="15" fill="#ffd54f"/><rect x="271" y="204" width="15" height="15" fill="#ffd54f"/><rect x="286" y="204" width="15" height="15" fill="#6b3d00"/><rect x="301" y="204" width="15" height="15" fill="#6b3d00"/><rect x="316" y="204" width="15" height="15" fill="#6b3d00"/><rect x="331" y="204" width="15" height="15" fill="#6b3d00"/><rect x="346" y="204" width="15" height="15" fill="#ffd54f"/><rect x="361" y="204" width="15" height="15" fill="#ffd54f"/><rect x="376" y="204" width="15" height="15" fill="#ffd54f"/><rect x="391" y="204" width="15" height="15" fill="#e8a317"/><rect x="256" y="219" width="15" height="15" fill="#e8a317"/><rect x="271" y="219" width="15" height="15" fill="#ffd54f"/><rect x="286" y="219" width="15" height="15" fill="#ffd54f"/><rect x="301" y="219" width="15" height="15" fill="#ffd54f"/><rect x="316" y="219" width="15" height="15" fill="#6b3d00"/><rect x="331" y="219" width="15" height="15" fill="#ffd54f"/><rect x="346" y="219" width="15" height="15" fill="#ffd54f"/><rect x="361" y="219" width="15" height="15" fill="#ffd54f"/><rect x="376" y="219" width="15" height="15" fill="#e8a317"/><rect x="271" y="234" width="15" height="15" fill="#e8a317"/><rect x="286" y="234" width="15" height="15" fill="#ffd54f"/><rect x="301" y="234" width="15" height="15" fill="#ffd54f"/><rect x="316" y="234" width="15" height="15" fill="#ffd54f"/><rect x="331" y="234" width="15" height="15" fill="#ffd54f"/><rect x="346" y="234" width="15" height="15" fill="#ffd54f"/><rect x="361" y="234" width="15" height="15" fill="#e8a317"/><rect x="286" y="249" width="15" height="15" fill="#e8a317"/><rect x="301" y="249" width="15" height="15" fill="#e8a317"/><rect x="316" y="249" width="15" height="15" fill="#e8a317"/><rect x="331" y="249" width="15" height="15" fill="#e8a317"/><rect x="346" y="249" width="15" height="15" fill="#e8a317"/><rect x="316" y="264" width="15" height="15" fill="#d97757"/><rect x="76" y="279" width="15" height="15" fill="#27a86f"/><rect x="106" y="279" width="15" height="15" fill="#d97757"/><rect x="121" y="279" width="15" height="15" fill="#d97757"/><rect x="136" y="279" width="15" height="15" fill="#d97757"/><rect x="151" y="279" width="15" height="15" fill="#d97757"/><rect x="166" y="279" width="15" height="15" fill="#d97757"/><rect x="181" y="279" width="15" height="15" fill="#d97757"/><rect x="196" y="279" width="15" height="15" fill="#d97757"/><rect x="211" y="279" width="15" height="15" fill="#d97757"/><rect x="226" y="279" width="15" height="15" fill="#d97757"/><rect x="241" y="279" width="15" height="15" fill="#d97757"/><rect x="256" y="279" width="15" height="15" fill="#d97757"/><rect x="271" y="279" width="15" height="15" fill="#d97757"/><rect x="316" y="279" width="15" height="15" fill="#d97757"/><rect x="421" y="279" width="15" height="15" fill="#fff3b0"/><rect x="76" y="294" width="15" height="15" fill="#27a86f"/><rect x="91" y="294" width="15" height="15" fill="#27a86f"/><rect x="106" y="294" width="15" height="15" fill="#3ddc97"/><rect x="121" y="294" width="15" height="15" fill="#3ddc97"/><rect x="136" y="294" width="15" height="15" fill="#3ddc97"/><rect x="151" y="294" width="15" height="15" fill="#3ddc97"/><rect x="166" y="294" width="15" height="15" fill="#3ddc97"/><rect x="181" y="294" width="15" height="15" fill="#3ddc97"/><rect x="196" y="294" width="15" height="15" fill="#3ddc97"/><rect x="211" y="294" width="15" height="15" fill="#3ddc97"/><rect x="226" y="294" width="15" height="15" fill="#3ddc97"/><rect x="241" y="294" width="15" height="15" fill="#3ddc97"/><rect x="256" y="294" width="15" height="15" fill="#3ddc97"/><rect x="271" y="294" width="15" height="15" fill="#3ddc97"/><rect x="316" y="294" width="15" height="15" fill="#d97757"/><rect x="406" y="294" width="15" height="15" fill="#fff3b0"/><rect x="421" y="294" width="15" height="15" fill="#fff3b0"/><rect x="436" y="294" width="15" height="15" fill="#fff3b0"/><rect x="106" y="309" width="15" height="15" fill="#d97757"/><rect x="121" y="309" width="15" height="15" fill="#d97757"/><rect x="136" y="309" width="15" height="15" fill="#1b120e"/><rect x="151" y="309" width="15" height="15" fill="#d97757"/><rect x="166" y="309" width="15" height="15" fill="#d97757"/><rect x="181" y="309" width="15" height="15" fill="#d97757"/><rect x="196" y="309" width="15" height="15" fill="#d97757"/><rect x="211" y="309" width="15" height="15" fill="#d97757"/><rect x="226" y="309" width="15" height="15" fill="#d97757"/><rect x="241" y="309" width="15" height="15" fill="#1b120e"/><rect x="256" y="309" width="15" height="15" fill="#d97757"/><rect x="271" y="309" width="15" height="15" fill="#d97757"/><rect x="316" y="309" width="15" height="15" fill="#d97757"/><rect x="421" y="309" width="15" height="15" fill="#fff3b0"/><rect x="106" y="324" width="15" height="15" fill="#d97757"/><rect x="121" y="324" width="15" height="15" fill="#d97757"/><rect x="136" y="324" width="15" height="15" fill="#1b120e"/><rect x="151" y="324" width="15" height="15" fill="#d97757"/><rect x="166" y="324" width="15" height="15" fill="#d97757"/><rect x="181" y="324" width="15" height="15" fill="#d97757"/><rect x="196" y="324" width="15" height="15" fill="#d97757"/><rect x="211" y="324" width="15" height="15" fill="#d97757"/><rect x="226" y="324" width="15" height="15" fill="#d97757"/><rect x="241" y="324" width="15" height="15" fill="#1b120e"/><rect x="256" y="324" width="15" height="15" fill="#d97757"/><rect x="271" y="324" width="15" height="15" fill="#d97757"/><rect x="316" y="324" width="15" height="15" fill="#d97757"/><rect x="76" y="339" width="15" height="15" fill="#d97757"/><rect x="91" y="339" width="15" height="15" fill="#d97757"/><rect x="106" y="339" width="15" height="15" fill="#d97757"/><rect x="121" y="339" width="15" height="15" fill="#d97757"/><rect x="136" y="339" width="15" height="15" fill="#d97757"/><rect x="151" y="339" width="15" height="15" fill="#d97757"/><rect x="166" y="339" width="15" height="15" fill="#d97757"/><rect x="181" y="339" width="15" height="15" fill="#d97757"/><rect x="196" y="339" width="15" height="15" fill="#d97757"/><rect x="211" y="339" width="15" height="15" fill="#d97757"/><rect x="226" y="339" width="15" height="15" fill="#d97757"/><rect x="241" y="339" width="15" height="15" fill="#d97757"/><rect x="256" y="339" width="15" height="15" fill="#d97757"/><rect x="271" y="339" width="15" height="15" fill="#d97757"/><rect x="286" y="339" width="15" height="15" fill="#d97757"/><rect x="301" y="339" width="15" height="15" fill="#d97757"/><rect x="316" y="339" width="15" height="15" fill="#d97757"/><rect x="76" y="354" width="15" height="15" fill="#d97757"/><rect x="91" y="354" width="15" height="15" fill="#d97757"/><rect x="106" y="354" width="15" height="15" fill="#d97757"/><rect x="121" y="354" width="15" height="15" fill="#d97757"/><rect x="136" y="354" width="15" height="15" fill="#d97757"/><rect x="151" y="354" width="15" height="15" fill="#d97757"/><rect x="166" y="354" width="15" height="15" fill="#d97757"/><rect x="181" y="354" width="15" height="15" fill="#d97757"/><rect x="196" y="354" width="15" height="15" fill="#d97757"/><rect x="211" y="354" width="15" height="15" fill="#d97757"/><rect x="226" y="354" width="15" height="15" fill="#d97757"/><rect x="241" y="354" width="15" height="15" fill="#d97757"/><rect x="256" y="354" width="15" height="15" fill="#d97757"/><rect x="271" y="354" width="15" height="15" fill="#d97757"/><rect x="286" y="354" width="15" height="15" fill="#d97757"/><rect x="301" y="354" width="15" height="15" fill="#d97757"/><rect x="316" y="354" width="15" height="15" fill="#d97757"/><rect x="106" y="369" width="15" height="15" fill="#d97757"/><rect x="121" y="369" width="15" height="15" fill="#d97757"/><rect x="136" y="369" width="15" height="15" fill="#d97757"/><rect x="151" y="369" width="15" height="15" fill="#d97757"/><rect x="166" y="369" width="15" height="15" fill="#d97757"/><rect x="181" y="369" width="15" height="15" fill="#d97757"/><rect x="196" y="369" width="15" height="15" fill="#d97757"/><rect x="211" y="369" width="15" height="15" fill="#d97757"/><rect x="226" y="369" width="15" height="15" fill="#d97757"/><rect x="241" y="369" width="15" height="15" fill="#d97757"/><rect x="256" y="369" width="15" height="15" fill="#d97757"/><rect x="271" y="369" width="15" height="15" fill="#d97757"/><rect x="106" y="384" width="15" height="15" fill="#d97757"/><rect x="121" y="384" width="15" height="15" fill="#d97757"/><rect x="136" y="384" width="15" height="15" fill="#d97757"/><rect x="151" y="384" width="15" height="15" fill="#d97757"/><rect x="166" y="384" width="15" height="15" fill="#d97757"/><rect x="181" y="384" width="15" height="15" fill="#d97757"/><rect x="196" y="384" width="15" height="15" fill="#d97757"/><rect x="211" y="384" width="15" height="15" fill="#d97757"/><rect x="226" y="384" width="15" height="15" fill="#d97757"/><rect x="241" y="384" width="15" height="15" fill="#d97757"/><rect x="256" y="384" width="15" height="15" fill="#d97757"/><rect x="271" y="384" width="15" height="15" fill="#d97757"/><rect x="121" y="399" width="15" height="15" fill="#d97757"/><rect x="151" y="399" width="15" height="15" fill="#d97757"/><rect x="226" y="399" width="15" height="15" fill="#d97757"/><rect x="256" y="399" width="15" height="15" fill="#d97757"/><rect x="121" y="414" width="15" height="15" fill="#d97757"/><rect x="151" y="414" width="15" height="15" fill="#d97757"/><rect x="226" y="414" width="15" height="15" fill="#d97757"/><rect x="256" y="414" width="15" height="15" fill="#d97757"/></g></svg>
